<svg version="1.0" xmlns="http://www.w3.org/2000/svg"
 width="1232.000000pt" height="456.000000pt" viewBox="0 0 1232.000000 456.000000"
 preserveAspectRatio="xMidYMid meet">

<g transform="translate(0.000000,456.000000) scale(0.100000,-0.100000)"
fill="#000000" stroke="none">
<path d="M5675 4289 c-261 -33 -541 -147 -748 -307 -272 -208 -467 -533 -548
-912 -21 -95 -23 -133 -23 -385 -1 -255 1 -290 22 -390 78 -371 240 -664 482
-870 285 -244 603 -355 1017 -355 436 0 761 118 1030 374 83 79 95 95 90 116
-3 14 -59 80 -124 148 -115 120 -119 122 -161 122 -51 0 -68 -8 -147 -70 -138
-107 -252 -156 -435 -186 -129 -22 -364 -14 -472 14 -414 110 -681 474 -718
977 -40 544 168 983 552 1163 128 60 196 74 386 79 140 4 187 2 250 -12 144
-32 233 -70 397 -169 61 -36 121 -66 133 -66 63 0 107 44 244 240 66 94 67
101 16 145 -54 47 -217 154 -286 189 -155 78 -320 130 -482 152 -114 15 -363
17 -475 3z"/>
<path d="M8440 4274 c-115 -15 -307 -63 -368 -93 -9 -4 -35 -16 -57 -27 -242
-112 -444 -393 -506 -702 -11 -53 -11 -64 1 -76 17 -14 260 -56 328 -56 81 0
145 47 180 130 67 161 122 238 212 298 98 66 158 83 280 84 171 0 268 -34 359
-124 90 -89 121 -180 121 -349 0 -141 -25 -244 -91 -377 -58 -116 -130 -222
-228 -332 -36 -41 -309 -319 -606 -618 -296 -299 -554 -564 -572 -589 -44 -62
-53 -99 -53 -224 0 -88 3 -108 16 -113 24 -9 2147 -7 2162 2 9 7 12 90 10 383
l-3 374 -111 3 c-61 1 -123 -2 -137 -7 -41 -16 -57 -51 -69 -152 -6 -52 -15
-99 -20 -106 -7 -8 -128 -13 -441 -16 -432 -4 -464 -7 -580 -44 -27 -8 -51
-12 -54 -9 -13 12 42 73 312 346 304 308 630 648 690 720 94 113 199 289 244
410 53 142 64 208 65 375 0 139 -3 171 -23 240 -55 190 -160 343 -316 462 -91
70 -242 134 -385 164 -92 20 -288 32 -360 23z"/>
<path d="M247 4263 c-3 -5 -5 -709 -6 -1565 -2 -1118 1 -1563 9 -1577 10 -20
18 -21 278 -21 147 0 272 4 279 8 9 5 12 384 14 1573 1 861 -1 1571 -5 1577
-8 14 -562 18 -569 5z"/>
<path d="M1625 4258 c-3 -7 -4 -716 -3 -1576 3 -1376 5 -1564 18 -1572 18 -12
530 -13 547 -2 10 6 13 145 15 618 l3 609 160 3 c127 2 169 -1 201 -13 47 -18
96 -61 135 -121 26 -38 202 -306 394 -599 280 -429 289 -441 360 -479 38 -20
56 -21 319 -24 169 -2 282 0 288 6 6 6 5 19 -4 34 -7 14 -184 276 -393 584
-299 440 -397 577 -462 645 -46 47 -83 88 -83 91 0 3 35 18 78 33 233 82 438
275 531 500 57 135 65 184 66 370 0 148 -3 180 -23 249 -56 193 -154 331 -314
439 -139 94 -292 150 -533 194 -123 23 -1292 33 -1300 11z m1150 -448 c187
-24 344 -123 410 -258 74 -152 61 -397 -29 -540 -80 -127 -233 -215 -421 -242
-47 -6 -173 -10 -305 -8 l-225 3 0 525 0 525 100 6 c118 8 371 2 470 -11z"/>
<path d="M11353 4222 c-24 -25 -61 -74 -488 -647 -201 -269 -395 -528 -430
-575 -36 -47 -135 -179 -221 -295 -86 -115 -176 -235 -199 -265 -95 -126 -123
-166 -130 -188 -6 -19 16 -142 46 -254 10 -40 48 -91 83 -111 16 -9 191 -13
706 -17 l685 -5 3 -372 c2 -363 3 -373 23 -383 23 -13 413 -10 426 3 4 5 9
177 11 383 l3 374 145 0 c234 0 244 10 244 240 0 109 -3 145 -14 156 -12 11
-52 14 -195 14 l-181 0 -2 343 c-1 188 0 625 2 971 2 529 1 629 -11 637 -8 5
-121 9 -251 9 -219 0 -239 -2 -255 -18z m58 -1272 l-6 -665 -473 -5 c-261 -3
-476 -2 -478 1 -6 11 79 139 197 299 136 183 291 397 482 665 170 238 277 380
282 372 1 -1 -1 -301 -4 -667z"/>
<path d="M6106 854 c-3 -9 -6 -161 -6 -339 l0 -324 34 -7 c19 -3 39 -3 45 1 7
4 11 67 11 178 0 190 5 207 59 244 65 44 152 23 166 -40 2 -12 6 -99 7 -194 2
-94 6 -174 10 -178 4 -4 22 -8 40 -8 l33 -2 -2 197 c-1 169 -4 203 -20 235
-23 48 -71 73 -139 73 -43 0 -61 -6 -103 -34 l-51 -35 0 78 c0 43 -3 99 -6
125 -6 44 -8 46 -39 46 -21 0 -35 -6 -39 -16z"/>
<path d="M8841 861 c-38 -10 -60 -50 -67 -118 -6 -57 -8 -61 -35 -67 -21 -4
-29 -11 -29 -26 0 -11 7 -21 15 -21 8 -1 21 -2 28 -3 9 -1 13 -53 15 -217 l2
-217 24 -6 c55 -14 55 -12 58 222 l3 217 45 5 c37 4 45 9 45 25 0 17 -8 20
-47 23 l-48 3 0 43 c0 53 16 76 60 85 29 6 35 11 35 31 0 22 -5 25 -40 27 -22
1 -51 -2 -64 -6z"/>
<path d="M307 833 c-4 -3 -7 -149 -7 -324 l0 -319 25 -6 c62 -15 63 -11 57
374 l-5 282 -32 0 c-17 0 -35 -3 -38 -7z"/>
<path d="M593 833 c-10 -4 -13 -78 -13 -323 l0 -318 30 -7 c16 -4 34 -4 40 0
6 4 10 120 10 331 l0 324 -27 -1 c-16 0 -34 -3 -40 -6z"/>
<path d="M959 813 c-87 -45 -121 -130 -83 -206 30 -60 75 -85 224 -123 52 -13
108 -29 123 -36 41 -16 67 -55 67 -100 0 -75 -75 -114 -206 -106 -81 5 -125
27 -156 75 -12 21 -28 33 -41 33 -85 -1 -41 -104 65 -151 44 -19 70 -23 153
-23 110 -1 159 12 206 51 42 36 59 74 59 136 0 102 -55 145 -244 193 -131 33
-170 56 -174 103 -9 86 35 121 149 121 80 0 122 -17 165 -67 28 -32 77 -29 82
5 5 32 -62 97 -113 111 -22 6 -81 11 -131 11 -79 0 -97 -3 -145 -27z"/>
<path d="M1471 822 c-19 -37 2 -47 111 -52 l103 -5 3 -286 2 -287 29 -4 c15
-2 33 -2 39 0 9 3 12 77 12 270 0 147 3 277 6 289 6 21 12 23 113 25 103 3
106 4 109 27 2 13 -2 28 -10 32 -7 5 -124 9 -260 9 -228 0 -248 -1 -257 -18z"/>
<path d="M2418 834 c-5 -4 -8 -151 -8 -326 l0 -318 40 0 40 0 0 129 c0 108 3
130 16 135 9 3 52 6 96 6 75 0 82 -2 107 -29 15 -16 51 -69 81 -117 79 -132
100 -149 154 -128 17 6 17 6 -91 171 -29 45 -53 86 -53 92 0 6 20 22 45 37 67
39 95 85 95 157 0 84 -28 129 -99 165 -54 26 -64 27 -236 30 -99 2 -183 0
-187 -4z m369 -82 c59 -31 77 -61 70 -119 -10 -93 -75 -119 -277 -111 l-85 3
-3 100 c-3 115 1 142 26 149 9 3 64 4 122 2 85 -2 113 -7 147 -24z"/>
<path d="M7104 819 c-55 -21 -115 -72 -138 -118 -20 -38 -46 -154 -46 -204 0
-89 36 -179 93 -238 126 -130 379 -111 478 36 20 29 24 43 17 52 -19 24 -57
14 -89 -22 -54 -62 -93 -78 -180 -79 -71 -1 -81 2 -121 29 -83 59 -125 159
-113 270 11 102 54 169 137 211 87 44 174 28 254 -48 32 -31 48 -39 70 -36 72
8 9 110 -92 148 -73 27 -198 27 -270 -1z"/>
<path d="M3222 676 c-89 -32 -137 -129 -130 -266 4 -96 35 -163 96 -205 40
-27 51 -30 125 -30 63 1 91 6 122 22 44 23 71 62 62 87 -8 19 -53 21 -60 3 -7
-20 -91 -57 -126 -57 -38 0 -81 19 -102 45 -19 22 -43 120 -34 135 4 6 72 10
176 10 195 0 189 -3 169 88 -27 127 -89 180 -210 180 -30 0 -70 -5 -88 -12z
m131 -50 c48 -19 87 -70 87 -112 0 -19 -3 -34 -7 -35 -44 -4 -213 -5 -230 -1
-29 5 -30 32 -3 88 13 26 33 48 53 58 40 19 59 20 100 2z"/>
<path d="M3736 674 c-63 -23 -86 -55 -86 -121 0 -51 3 -59 35 -88 19 -19 49
-36 67 -40 118 -24 208 -72 208 -112 0 -82 -184 -109 -251 -37 -14 15 -34 24
-51 24 -26 0 -29 -3 -26 -27 5 -40 74 -89 138 -98 62 -9 155 2 193 22 55 28
79 99 58 173 -10 36 -61 66 -171 100 -104 32 -130 51 -130 93 0 36 50 67 109
67 32 0 55 -8 88 -31 82 -54 132 -21 63 43 -51 47 -163 62 -244 32z"/>
<path d="M4260 673 c-48 -21 -98 -77 -111 -127 -16 -57 -15 -183 1 -231 34
-104 121 -154 247 -140 77 8 148 54 148 96 0 33 -39 38 -71 8 -26 -24 -86 -49
-120 -49 -12 0 -37 7 -57 15 -41 17 -77 81 -77 138 l0 37 173 2 172 3 3 38 c4
45 -21 125 -50 162 -46 59 -177 83 -258 48z m147 -50 c40 -19 83 -78 86 -119
l2 -28 -135 3 c-74 2 -137 5 -139 7 -8 8 22 94 38 108 24 22 73 46 94 46 11 0
35 -7 54 -17z"/>
<path d="M4801 667 c-58 -28 -90 -70 -71 -92 20 -25 59 -18 86 15 44 52 123
58 169 13 28 -29 50 -92 36 -106 -5 -5 -54 -13 -108 -16 -164 -12 -223 -54
-223 -160 0 -99 47 -145 150 -145 74 0 126 24 150 69 17 32 26 32 38 -3 16
-46 39 -62 88 -62 33 0 46 5 51 17 4 9 1 19 -5 21 -6 2 -22 12 -34 22 -22 17
-23 27 -29 182 -5 160 -12 192 -45 226 -47 46 -179 56 -253 19z m217 -279 c4
-41 -20 -95 -52 -118 -33 -24 -98 -41 -133 -35 -94 16 -80 161 17 185 19 5 64
8 100 7 l65 -2 3 -37z"/>
<path d="M5409 676 c-14 -8 -31 -27 -38 -43 l-13 -28 -17 35 c-16 35 -45 50
-62 33 -5 -5 -11 -111 -13 -236 -4 -244 -1 -262 45 -255 l24 3 6 170 c7 216
13 233 100 258 39 11 44 16 44 42 0 25 -4 30 -25 32 -14 2 -37 -4 -51 -11z"/>
<path d="M5700 673 c-39 -17 -72 -49 -98 -96 -13 -25 -17 -56 -17 -147 0 -107
2 -118 27 -162 46 -77 113 -106 216 -93 49 6 63 13 99 50 32 32 43 50 43 74 0
27 -3 31 -27 31 -20 0 -35 -10 -53 -36 -28 -40 -56 -54 -105 -54 -93 0 -125
51 -125 197 0 110 15 150 69 178 56 28 94 20 143 -30 30 -31 51 -45 71 -45 29
0 33 12 18 53 -31 81 -165 122 -261 80z"/>
<path d="M7747 666 c-80 -40 -116 -112 -117 -237 -1 -172 70 -253 220 -254
100 0 154 29 193 107 23 46 27 65 27 144 0 186 -62 262 -215 263 -44 0 -73 -6
-108 -23z m182 -55 c42 -30 61 -87 61 -184 -1 -106 -23 -159 -76 -182 -134
-56 -223 51 -199 239 15 127 124 191 214 127z"/>
<path d="M8365 673 c-16 -9 -40 -28 -52 -42 l-22 -25 -12 31 c-11 33 -44 52
-60 36 -12 -12 -18 -440 -7 -471 6 -18 14 -23 36 -20 l27 3 5 175 c4 147 8
180 23 203 42 65 133 87 182 45 34 -30 47 -111 43 -280 -3 -138 0 -148 50
-148 l22 0 0 200 c0 182 -2 205 -20 240 -33 65 -143 92 -215 53z"/>
<path d="M9155 677 c-56 -23 -84 -49 -110 -102 -23 -45 -26 -66 -27 -149 0
-123 22 -176 96 -221 43 -26 58 -30 125 -29 86 0 154 27 173 69 24 53 -17 73
-61 31 -15 -14 -47 -30 -73 -37 -99 -27 -178 33 -178 133 l0 48 173 2 172 3 0
55 c-2 126 -73 202 -194 207 -36 1 -79 -3 -96 -10z m150 -63 c28 -19 65 -82
65 -112 0 -18 -11 -20 -126 -26 -81 -5 -130 -4 -136 2 -15 15 -1 75 24 107 43
55 115 67 173 29z"/>
<path d="M9730 668 c-19 -13 -36 -34 -38 -46 -4 -25 -22 -20 -22 7 0 31 -24
54 -48 47 -22 -7 -22 -10 -22 -247 l0 -239 35 0 35 0 0 140 c0 153 12 229 39
254 10 9 38 22 62 29 39 11 44 16 44 42 0 25 -5 31 -25 33 -15 2 -41 -7 -60
-20z"/>
<path d="M10035 670 c-56 -26 -69 -39 -96 -90 -21 -39 -24 -59 -24 -150 0 -89
4 -111 23 -147 31 -59 80 -93 144 -101 89 -12 152 -1 195 34 68 55 39 113 -30
62 -122 -90 -237 -49 -254 90 l-6 52 174 2 174 3 3 42 c7 91 -37 170 -113 204
-52 24 -138 23 -190 -1z m142 -47 c45 -21 95 -89 91 -123 -3 -25 -4 -25 -108
-28 -129 -4 -170 3 -170 26 0 36 45 105 80 124 43 22 62 23 107 1z"/>
<path d="M10655 679 c-11 -7 -36 -25 -56 -41 -20 -15 -39 -28 -42 -28 -2 0 -7
14 -10 30 -5 24 -12 30 -31 30 l-25 0 -3 -207 c-2 -115 -1 -223 1 -241 3 -30
6 -33 35 -30 l31 3 0 160 c0 182 11 220 67 255 51 31 110 27 147 -11 29 -28
31 -36 33 -107 2 -42 1 -112 -1 -156 -5 -131 7 -160 63 -148 18 4 19 13 13
203 -7 213 -12 237 -59 272 -33 25 -132 34 -163 16z"/>
<path d="M11155 677 c-97 -38 -127 -91 -133 -235 -4 -95 -2 -106 23 -157 19
-41 37 -61 68 -79 103 -59 229 -35 280 52 40 68 -18 102 -61 36 -26 -40 -56
-54 -115 -54 -87 0 -117 50 -117 195 0 112 15 157 59 179 61 32 107 19 178
-51 29 -30 57 -26 61 8 9 79 -143 145 -243 106z"/>
<path d="M11655 678 c-97 -35 -135 -106 -136 -254 -1 -123 22 -174 99 -221 31
-19 52 -23 120 -23 89 0 121 11 160 53 47 50 3 90 -46 44 -103 -95 -249 -39
-255 96 l-2 42 170 5 170 5 -1 72 c-2 75 -21 117 -68 153 -51 38 -147 50 -211
28z m135 -54 c37 -22 81 -93 78 -124 -3 -25 -4 -25 -113 -28 -60 -2 -121 0
-134 3 -21 5 -23 10 -18 46 12 89 114 145 187 103z"/>
</g>
</svg>